<svg xmlns="http://www.w3.org/2000/svg" viewBox="0 0 680 580" font-family="Helvetica, Arial, sans-serif">
  <defs>
    <marker id="arrow" viewBox="0 0 10 10" refX="8" refY="5" markerWidth="6" markerHeight="6" orient="auto-start-reverse">
      <path d="M2 1L8 5L2 9" fill="none" stroke="#888780" stroke-width="1.5" stroke-linecap="round" stroke-linejoin="round"/>
    </marker>
  </defs>
  <rect x="0" y="0" width="680" height="580" fill="#ffffff"/>

  <rect x="180" y="30" width="320" height="56" rx="8" fill="#F1EFE8" stroke="#B4B2A9" stroke-width="0.8"/>
  <text x="340" y="50" text-anchor="middle" dominant-baseline="central" font-size="14" font-weight="500" fill="#444441">Data acquisition</text>
  <text x="340" y="69" text-anchor="middle" dominant-baseline="central" font-size="12" fill="#5F5E5A">CelesTrak GP / OMM + SATCAT</text>
  <line x1="340" y1="88" x2="340" y2="116" stroke="#888780" stroke-width="1.2" marker-end="url(#arrow)"/>

  <rect x="180" y="120" width="320" height="56" rx="8" fill="#EEEDFE" stroke="#7F77DD" stroke-width="0.8"/>
  <text x="340" y="140" text-anchor="middle" dominant-baseline="central" font-size="14" font-weight="500" fill="#3C3489">Pre-filter</text>
  <text x="340" y="159" text-anchor="middle" dominant-baseline="central" font-size="12" fill="#534AB7">exclusions · apo/peri gate · regime</text>
  <line x1="340" y1="178" x2="340" y2="206" stroke="#888780" stroke-width="1.2" marker-end="url(#arrow)"/>

  <rect x="180" y="210" width="320" height="56" rx="8" fill="#E1F5EE" stroke="#5DCAA5" stroke-width="0.8"/>
  <text x="340" y="230" text-anchor="middle" dominant-baseline="central" font-size="14" font-weight="500" fill="#085041">Coarse filter</text>
  <text x="340" y="249" text-anchor="middle" dominant-baseline="central" font-size="12" fill="#0F6E56">15 min · 50 km · spatial index</text>
  <line x1="340" y1="268" x2="340" y2="296" stroke="#888780" stroke-width="1.2" marker-end="url(#arrow)"/>
  <text x="358" y="282" text-anchor="start" dominant-baseline="central" font-size="12" fill="#5F5E5A">≤50 km + windows ±30 min</text>

  <rect x="180" y="300" width="320" height="56" rx="8" fill="#E1F5EE" stroke="#5DCAA5" stroke-width="0.8"/>
  <text x="340" y="320" text-anchor="middle" dominant-baseline="central" font-size="14" font-weight="500" fill="#085041">Fine filter</text>
  <text x="340" y="339" text-anchor="middle" dominant-baseline="central" font-size="12" fill="#0F6E56">5 min · 25 km · windowed</text>
  <line x1="340" y1="358" x2="340" y2="386" stroke="#888780" stroke-width="1.2" marker-end="url(#arrow)"/>
  <text x="358" y="372" text-anchor="start" dominant-baseline="central" font-size="12" fill="#5F5E5A">≤25 km + windows ±10 min</text>

  <rect x="180" y="390" width="320" height="56" rx="8" fill="#E1F5EE" stroke="#5DCAA5" stroke-width="0.8"/>
  <text x="340" y="410" text-anchor="middle" dominant-baseline="central" font-size="14" font-weight="500" fill="#085041">Loitering detection</text>
  <text x="340" y="429" text-anchor="middle" dominant-baseline="central" font-size="12" fill="#0F6E56">1 min · 5 km · ≥1 hr contiguous</text>
  <line x1="340" y1="448" x2="340" y2="476" stroke="#888780" stroke-width="1.2" marker-end="url(#arrow)"/>

  <rect x="180" y="480" width="320" height="56" rx="8" fill="#EAF3DE" stroke="#97C459" stroke-width="0.8"/>
  <text x="340" y="500" text-anchor="middle" dominant-baseline="central" font-size="14" font-weight="500" fill="#27500A">Loitering event pairs</text>
  <text x="340" y="519" text-anchor="middle" dominant-baseline="central" font-size="12" fill="#3B6D11">→ analytics + GUI</text>

  <rect x="150" y="550" width="12" height="12" rx="3" fill="#F1EFE8" stroke="#B4B2A9" stroke-width="0.8"/>
  <text x="168" y="556" dominant-baseline="central" font-size="12" fill="#5F5E5A">data</text>
  <rect x="222" y="550" width="12" height="12" rx="3" fill="#EEEDFE" stroke="#7F77DD" stroke-width="0.8"/>
  <text x="240" y="556" dominant-baseline="central" font-size="12" fill="#5F5E5A">pre-filter</text>
  <rect x="320" y="550" width="12" height="12" rx="3" fill="#E1F5EE" stroke="#5DCAA5" stroke-width="0.8"/>
  <text x="338" y="556" dominant-baseline="central" font-size="12" fill="#5F5E5A">screening cascade</text>
  <rect x="470" y="550" width="12" height="12" rx="3" fill="#EAF3DE" stroke="#97C459" stroke-width="0.8"/>
  <text x="488" y="556" dominant-baseline="central" font-size="12" fill="#5F5E5A">result</text>
</svg>
