<svg xmlns="http://www.w3.org/2000/svg" viewBox="0 0 680 620" font-family="Helvetica, Arial, sans-serif">
  <rect x="1" y="1" width="678" height="618" rx="12" fill="#ffffff" stroke="#D3D1C7"/>
  <path d="M1 13 a12 12 0 0 1 12 -12 h654 a12 12 0 0 1 12 12 v22 h-678 z" fill="#F1EFE8"/>
  <line x1="1" y1="35" x2="679" y2="35" stroke="#D3D1C7"/>
  <path d="M24 14 l-5 4 l5 4" stroke="#185FA5" stroke-width="1.4" fill="none" stroke-linecap="round" stroke-linejoin="round"/>
  <text x="34" y="18" dominant-baseline="central" font-size="13" fill="#5F5E5A"><tspan fill="#185FA5">Results</tspan> · Run Jun 16 · 16:30</text>

  <rect x="18" y="52" width="120" height="26" rx="6" fill="#F1EFE8"/>
  <text x="78" y="65" text-anchor="middle" dominant-baseline="central" font-size="13" font-weight="500" fill="#2C2C2A">41702 · payload</text>
  <text x="151" y="65" text-anchor="middle" dominant-baseline="central" font-size="14" fill="#888780">×</text>
  <rect x="164" y="52" width="142" height="26" rx="6" fill="#F1EFE8"/>
  <text x="235" y="65" text-anchor="middle" dominant-baseline="central" font-size="13" font-weight="500" fill="#2C2C2A">39208 · rocket body</text>

  <rect x="18" y="92" width="153" height="54" rx="6" fill="#F1EFE8"/>
  <text x="30" y="111" font-size="12" fill="#5F5E5A">Min range</text>
  <text x="30" y="135" font-size="22" font-weight="500" fill="#2C2C2A">1.9 km</text>
  <rect x="182" y="92" width="153" height="54" rx="6" fill="#F1EFE8"/>
  <text x="194" y="111" font-size="12" fill="#5F5E5A">Loiter duration</text>
  <text x="194" y="135" font-size="22" font-weight="500" fill="#2C2C2A">3h 42m</text>
  <rect x="345" y="92" width="153" height="54" rx="6" fill="#F1EFE8"/>
  <text x="357" y="111" font-size="12" fill="#5F5E5A">Min-range time</text>
  <text x="357" y="133" font-size="14" font-weight="500" fill="#2C2C2A">Jun 18 · 04:17</text>
  <rect x="509" y="92" width="153" height="54" rx="6" fill="#F1EFE8"/>
  <text x="521" y="111" font-size="12" fill="#5F5E5A">Confidence</text>
  <text x="521" y="133" font-size="16" font-weight="500" fill="#3B6D11">High</text>

  <rect x="18" y="158" width="300" height="276" rx="10" fill="#ffffff" stroke="#E5E4DF"/>
  <text x="32" y="180" dominant-baseline="central" font-size="13" font-weight="500" fill="#2C2C2A">Relative motion (RIC)</text>
  <circle cx="168" cy="310" r="58" fill="none" stroke="#B4B2A9" stroke-width="0.8" stroke-dasharray="4 4"/>
  <line x1="168" y1="216" x2="168" y2="404" stroke="#B4B2A9" stroke-width="0.8"/>
  <line x1="64" y1="310" x2="280" y2="310" stroke="#B4B2A9" stroke-width="0.8"/>
  <ellipse cx="168" cy="310" rx="44" ry="22" fill="none" stroke="#185FA5" stroke-width="1.5"/>
  <circle cx="190" cy="291" r="3.5" fill="#185FA5"/>
  <circle cx="168" cy="310" r="3" fill="#2C2C2A"/>
  <text x="175" y="323" font-size="11" fill="#5F5E5A">A</text>
  <text x="194" y="288" font-size="11" fill="#5F5E5A">B</text>
  <text x="226" y="326" font-size="11" fill="#888780">+5</text>
  <text x="104" y="326" font-size="11" fill="#888780">−5</text>
  <text x="150" y="255" text-anchor="end" font-size="11" fill="#888780">+5</text>
  <text x="150" y="376" text-anchor="end" font-size="11" fill="#888780">−5</text>
  <text x="168" y="424" text-anchor="middle" font-size="11" fill="#5F5E5A">in-track (km)</text>
  <text x="32" y="206" font-size="11" fill="#5F5E5A">radial</text>

  <rect x="332" y="158" width="330" height="92" rx="10" fill="#ffffff" stroke="#E5E4DF"/>
  <text x="346" y="180" dominant-baseline="central" font-size="13" font-weight="500" fill="#2C2C2A">Object A · 41702</text>
  <text x="346" y="204" dominant-baseline="central" font-size="13" fill="#5F5E5A">Owner</text>
  <text x="648" y="204" text-anchor="end" dominant-baseline="central" font-size="13" fill="#2C2C2A">USA</text>
  <text x="346" y="224" dominant-baseline="central" font-size="13" fill="#5F5E5A">Type · regime</text>
  <text x="648" y="224" text-anchor="end" dominant-baseline="central" font-size="13" fill="#2C2C2A">Payload · LEO</text>
  <text x="346" y="244" dominant-baseline="central" font-size="13" fill="#5F5E5A">Epoch age</text>
  <text x="648" y="244" text-anchor="end" dominant-baseline="central" font-size="13" fill="#3B6D11">0.4 d</text>

  <rect x="332" y="262" width="330" height="92" rx="10" fill="#ffffff" stroke="#E5E4DF"/>
  <text x="346" y="284" dominant-baseline="central" font-size="13" font-weight="500" fill="#2C2C2A">Object B · 39208</text>
  <text x="346" y="308" dominant-baseline="central" font-size="13" fill="#5F5E5A">Owner</text>
  <text x="648" y="308" text-anchor="end" dominant-baseline="central" font-size="13" fill="#2C2C2A">CIS</text>
  <text x="346" y="328" dominant-baseline="central" font-size="13" fill="#5F5E5A">Type · regime</text>
  <text x="648" y="328" text-anchor="end" dominant-baseline="central" font-size="13" fill="#2C2C2A">R/B · LEO</text>
  <text x="346" y="348" dominant-baseline="central" font-size="13" fill="#5F5E5A">Epoch age</text>
  <text x="648" y="348" text-anchor="end" dominant-baseline="central" font-size="13" fill="#2C2C2A">1.9 d</text>

  <rect x="18" y="448" width="644" height="164" rx="10" fill="#ffffff" stroke="#E5E4DF"/>
  <text x="32" y="470" dominant-baseline="central" font-size="13" font-weight="500" fill="#2C2C2A">Separation over window</text>
  <rect x="280" y="490" width="239" height="102" fill="#185FA5" opacity="0.10"/>
  <line x1="56" y1="592" x2="648" y2="592" stroke="#B4B2A9" stroke-width="0.8"/>
  <line x1="56" y1="490" x2="56" y2="592" stroke="#B4B2A9" stroke-width="0.8"/>
  <line x1="56" y1="574" x2="648" y2="574" stroke="#A32D2D" stroke-width="1" stroke-dasharray="5 3"/>
  <polyline points="56,505 112,532 171,554 231,568 280,575 318,582 358,585 398,569 422,582 465,580 506,576 519,575 543,563 596,539 648,513" fill="none" stroke="#185FA5" stroke-width="1.6"/>
  <circle cx="358" cy="585" r="3" fill="#185FA5"/>
  <text x="50" y="595" text-anchor="end" font-size="11" fill="#888780">0</text>
  <text x="50" y="577" text-anchor="end" font-size="11" fill="#888780">5</text>
  <text x="50" y="559" text-anchor="end" font-size="11" fill="#888780">10</text>
  <text x="50" y="522" text-anchor="end" font-size="11" fill="#888780">20</text>
  <text x="624" y="570" font-size="11" fill="#A32D2D">5 km</text>
  <text x="400" y="503" text-anchor="middle" font-size="11" fill="#185FA5">loiter ≥ 1 h</text>
  <text x="358" y="606" text-anchor="middle" font-size="11" fill="#5F5E5A">min 1.9 km</text>
  <text x="404" y="560" font-size="11" fill="#5F5E5A">5-min excursion</text>
  <text x="56" y="608" font-size="11" fill="#888780">T0</text>
  <text x="648" y="608" text-anchor="end" font-size="11" fill="#888780">T0 + 7 d</text>
</svg>
