<svg xmlns="http://www.w3.org/2000/svg" viewBox="0 0 680 600" font-family="Helvetica, Arial, sans-serif">
  <rect x="1" y="1" width="678" height="598" rx="12" fill="#ffffff" stroke="#D3D1C7"/>

  <text x="18" y="34" dominant-baseline="central" font-size="18" font-weight="500" fill="#2C2C2A">Analytics</text>
  <text x="104" y="35" dominant-baseline="central" font-size="13" fill="#5F5E5A">14 runs · Jun 3 – Jun 16 · current config</text>

  <rect x="18" y="52" width="153" height="54" rx="6" fill="#F1EFE8"/>
  <text x="30" y="71" font-size="12" fill="#5F5E5A">Runs</text>
  <text x="30" y="95" font-size="22" font-weight="500" fill="#2C2C2A">14</text>
  <rect x="182" y="52" width="153" height="54" rx="6" fill="#F1EFE8"/>
  <text x="194" y="71" font-size="12" fill="#5F5E5A">Distinct pairs</text>
  <text x="194" y="95" font-size="22" font-weight="500" fill="#2C2C2A">38</text>
  <rect x="345" y="52" width="153" height="54" rx="6" fill="#F1EFE8"/>
  <text x="357" y="71" font-size="12" fill="#5F5E5A">Recurring &gt;1 run</text>
  <text x="357" y="95" font-size="22" font-weight="500" fill="#2C2C2A">9</text>
  <rect x="509" y="52" width="153" height="54" rx="6" fill="#F1EFE8"/>
  <text x="521" y="71" font-size="12" fill="#5F5E5A">Persistent ≥5</text>
  <text x="521" y="95" font-size="22" font-weight="500" fill="#2C2C2A">3</text>

  <text x="18" y="132" dominant-baseline="central" font-size="13" font-weight="500" fill="#2C2C2A">Events per run</text>
  <rect x="130" y="126" width="11" height="11" rx="2" fill="#185FA5"/>
  <text x="146" y="132" dominant-baseline="central" font-size="12" fill="#5F5E5A">recurring</text>
  <rect x="222" y="126" width="11" height="11" rx="2" fill="#E6F1FB" stroke="#B4B2A9"/>
  <text x="238" y="132" dominant-baseline="central" font-size="12" fill="#5F5E5A">new</text>

  <g transform="translate(18,148)">
    <line x1="44" y1="20" x2="44" y2="150" stroke="#B4B2A9" stroke-width="0.8"/>
    <line x1="44" y1="150" x2="588" y2="150" stroke="#B4B2A9" stroke-width="0.8"/>
    <text x="38" y="153" text-anchor="end" font-size="11" fill="#888780">0</text>
    <text x="38" y="88" text-anchor="end" font-size="11" fill="#888780">5</text>
    <text x="38" y="24" text-anchor="end" font-size="11" fill="#888780">10</text>

    <rect x="53" y="111" width="21" height="39" fill="#E6F1FB" stroke="#B4B2A9" stroke-width="0.5"/>
    <rect x="92" y="137" width="21" height="13" fill="#185FA5"/>
    <rect x="92" y="111" width="21" height="26" fill="#E6F1FB" stroke="#B4B2A9" stroke-width="0.5"/>
    <rect x="131" y="124" width="21" height="26" fill="#185FA5"/>
    <rect x="131" y="98" width="21" height="26" fill="#E6F1FB" stroke="#B4B2A9" stroke-width="0.5"/>
    <rect x="170" y="111" width="21" height="39" fill="#185FA5"/>
    <rect x="170" y="98" width="21" height="13" fill="#E6F1FB" stroke="#B4B2A9" stroke-width="0.5"/>
    <rect x="208" y="111" width="21" height="39" fill="#185FA5"/>
    <rect x="208" y="85" width="21" height="26" fill="#E6F1FB" stroke="#B4B2A9" stroke-width="0.5"/>
    <rect x="247" y="98" width="21" height="52" fill="#185FA5"/>
    <rect x="247" y="85" width="21" height="13" fill="#E6F1FB" stroke="#B4B2A9" stroke-width="0.5"/>
    <rect x="286" y="85" width="21" height="65" fill="#185FA5"/>
    <rect x="286" y="59" width="21" height="26" fill="#E6F1FB" stroke="#B4B2A9" stroke-width="0.5"/>
    <rect x="325" y="72" width="21" height="78" fill="#185FA5"/>
    <rect x="325" y="59" width="21" height="13" fill="#E6F1FB" stroke="#B4B2A9" stroke-width="0.5"/>

    <line x1="355" y1="18" x2="355" y2="150" stroke="#A32D2D" stroke-width="1" stroke-dasharray="4 3"/>
    <text x="355" y="13" text-anchor="middle" font-size="11" fill="#A32D2D">config changed</text>

    <rect x="364" y="111" width="21" height="39" fill="#185FA5"/>
    <rect x="364" y="98" width="21" height="13" fill="#E6F1FB" stroke="#B4B2A9" stroke-width="0.5"/>
    <rect x="403" y="111" width="21" height="39" fill="#185FA5"/>
    <rect x="442" y="98" width="21" height="52" fill="#185FA5"/>
    <rect x="442" y="85" width="21" height="13" fill="#E6F1FB" stroke="#B4B2A9" stroke-width="0.5"/>
    <rect x="480" y="98" width="21" height="52" fill="#185FA5"/>
    <rect x="519" y="85" width="21" height="65" fill="#185FA5"/>
    <rect x="519" y="72" width="21" height="13" fill="#E6F1FB" stroke="#B4B2A9" stroke-width="0.5"/>
    <rect x="558" y="85" width="21" height="65" fill="#185FA5"/>
    <rect x="558" y="72" width="21" height="13" fill="#E6F1FB" stroke="#B4B2A9" stroke-width="0.5"/>

    <text x="53" y="166" font-size="11" fill="#888780">Jun 3</text>
    <text x="579" y="166" text-anchor="end" font-size="11" fill="#888780">Jun 16</text>
  </g>

  <text x="18" y="348" dominant-baseline="central" font-size="13" font-weight="500" fill="#2C2C2A">Recurring pairs</text>
  <text x="24" y="368" dominant-baseline="central" font-size="13" fill="#5F5E5A">Pair</text>
  <text x="176" y="368" dominant-baseline="central" font-size="13" fill="#5F5E5A">Runs</text>
  <text x="240" y="368" dominant-baseline="central" font-size="13" fill="#5F5E5A">First → last</text>
  <text x="372" y="368" dominant-baseline="central" font-size="13" fill="#5F5E5A">Min range</text>
  <text x="470" y="368" dominant-baseline="central" font-size="13" fill="#5F5E5A">Trend</text>
  <text x="580" y="368" dominant-baseline="central" font-size="13" fill="#5F5E5A">Regime</text>
  <line x1="18" y1="382" x2="662" y2="382" stroke="#E5E4DF"/>

  <text x="24" y="400" dominant-baseline="central" font-size="13" fill="#2C2C2A">41702 × 39208</text>
  <text x="176" y="400" dominant-baseline="central" font-size="13" fill="#2C2C2A">9</text>
  <text x="240" y="400" dominant-baseline="central" font-size="13" fill="#5F5E5A">Jun 5 → 16</text>
  <text x="372" y="400" dominant-baseline="central" font-size="13" fill="#2C2C2A">1.9 km</text>
  <polyline points="470,395 485,397 500,399 515,402 530,406" fill="none" stroke="#185FA5" stroke-width="1.4"/>
  <text x="580" y="400" dominant-baseline="central" font-size="13" fill="#5F5E5A">LEO</text>
  <line x1="18" y1="418" x2="662" y2="418" stroke="#E5E4DF"/>

  <text x="24" y="434" dominant-baseline="central" font-size="13" fill="#2C2C2A">27386 × 31698</text>
  <text x="176" y="434" dominant-baseline="central" font-size="13" fill="#2C2C2A">7</text>
  <text x="240" y="434" dominant-baseline="central" font-size="13" fill="#5F5E5A">Jun 6 → 16</text>
  <text x="372" y="434" dominant-baseline="central" font-size="13" fill="#2C2C2A">3.4 km</text>
  <polyline points="470,433 485,431 500,434 515,432 530,433" fill="none" stroke="#185FA5" stroke-width="1.4"/>
  <text x="580" y="434" dominant-baseline="central" font-size="13" fill="#5F5E5A">LEO</text>
  <line x1="18" y1="452" x2="662" y2="452" stroke="#E5E4DF"/>

  <text x="24" y="468" dominant-baseline="central" font-size="13" fill="#2C2C2A">25994 × 43013</text>
  <text x="176" y="468" dominant-baseline="central" font-size="13" fill="#2C2C2A">6</text>
  <text x="240" y="468" dominant-baseline="central" font-size="13" fill="#5F5E5A">Jun 3 → 14</text>
  <text x="372" y="468" dominant-baseline="central" font-size="13" fill="#2C2C2A">4.1 km</text>
  <polyline points="470,463 485,465 500,465 515,468 530,471" fill="none" stroke="#185FA5" stroke-width="1.4"/>
  <text x="580" y="468" dominant-baseline="central" font-size="13" fill="#5F5E5A">LEO</text>
  <line x1="18" y1="486" x2="662" y2="486" stroke="#E5E4DF"/>

  <text x="24" y="502" dominant-baseline="central" font-size="13" fill="#2C2C2A">28492 × 33591</text>
  <text x="176" y="502" dominant-baseline="central" font-size="13" fill="#2C2C2A">5</text>
  <text x="240" y="502" dominant-baseline="central" font-size="13" fill="#5F5E5A">Jun 8 → 16</text>
  <text x="372" y="502" dominant-baseline="central" font-size="13" fill="#2C2C2A">2.7 km</text>
  <polyline points="470,502 485,503 500,501 515,503 530,502" fill="none" stroke="#185FA5" stroke-width="1.4"/>
  <text x="580" y="502" dominant-baseline="central" font-size="13" fill="#5F5E5A">MEO</text>
  <line x1="18" y1="520" x2="662" y2="520" stroke="#E5E4DF"/>

  <text x="24" y="536" dominant-baseline="central" font-size="13" fill="#2C2C2A">19548 × 22675</text>
  <text x="176" y="536" dominant-baseline="central" font-size="13" fill="#2C2C2A">4</text>
  <text x="240" y="536" dominant-baseline="central" font-size="13" fill="#5F5E5A">Jun 9 → 15</text>
  <text x="372" y="536" dominant-baseline="central" font-size="13" fill="#2C2C2A">4.6 km</text>
  <polyline points="470,541 485,538 500,537 515,534 530,531" fill="none" stroke="#185FA5" stroke-width="1.4"/>
  <text x="580" y="536" dominant-baseline="central" font-size="13" fill="#5F5E5A">GEO</text>
</svg>
